<svg xmlns="http://www.w3.org/2000/svg" width="38.875" height="38" viewBox="0 0 38.875 38">
  <metadata><?xpacket begin="﻿" id="W5M0MpCehiHzreSzNTczkc9d"?>
<x:xmpmeta xmlns:x="adobe:ns:meta/" x:xmptk="Adobe XMP Core 5.6-c142 79.160924, 2017/07/13-01:06:39        ">
   <rdf:RDF xmlns:rdf="http://www.w3.org/1999/02/22-rdf-syntax-ns#">
      <rdf:Description rdf:about=""/>
   </rdf:RDF>
</x:xmpmeta>
                                                                                                    
                                                                                                    
                                                                                                    
                                                                                                    
                                                                                                    
                                                                                                    
                                                                                                    
                                                                                                    
                                                                                                    
                                                                                                    
                                                                                                    
                                                                                                    
                                                                                                    
                                                                                                    
                                                                                                    
                                                                                                    
                                                                                                    
                                                                                                    
                                                                                                    
                                                                                                    
                           
<?xpacket end="w"?></metadata>
<defs>
    <style>
      .cls-1 {
        fill: #e3a062;
        fill-rule: evenodd;
      }
    </style>
  </defs>
  <path id="Icon" class="cls-1" d="M61.617,59.1a12.5,12.5,0,0,0,.933,3.558,2.594,2.594,0,0,0,.2-0.494l-0.017-.007L62.8,62a17.363,17.363,0,0,0,.452-2.9,8.07,8.07,0,0,1-.821.042A6.794,6.794,0,0,1,61.617,59.1ZM68.281,69.18H68.169c0.038,0.062.077,0.122,0.113,0.185V69.18Zm-8.306-4.039,0.439,1.121a6.732,6.732,0,0,1,4.037,0l0.44-1.123-2.453-1.053Zm-2.008,2.519L57.3,66.29l-1.7.729,0.41,0.963h1.617C57.735,67.87,57.85,67.764,57.967,67.661Zm9.977,1.17h0.4l0.91-1.817-1.69-.726L66.9,67.661A6.72,6.72,0,0,1,67.945,68.831ZM59.669,43.451L58.954,41.8a0.242,0.242,0,0,0-.316-0.125l-1.245.538a0.43,0.43,0,0,1-.057.039L44.465,47.813a0.577,0.577,0,0,1-.066.014l-1.26.544a0.24,0.24,0,0,0-.125.316l0.715,1.647a0.241,0.241,0,0,0,.315.125l15.6-6.777A0.235,0.235,0,0,0,59.669,43.451Zm-2.415-1.664-0.313-.721a0.114,0.114,0,0,0-.149-0.058l-12.87,5.555a0.113,0.113,0,0,0-.059.149l0.313,0.72a0.108,0.108,0,0,0,.114.06l12.929-5.581a0.11,0.11,0,0,0,.036-0.038A0.112,0.112,0,0,0,57.254,41.787Zm-12.928,5.7L57.2,41.936a0.13,0.13,0,0,0,.024-0.025L44.29,47.493A0.111,0.111,0,0,0,44.326,47.492Zm12.542,9.717,0.162,0.415,0.293-.127C57.17,57.4,57.018,57.308,56.868,57.209Zm-3.9-7.945-7.825,3.377c0.087,0.175.181,0.358,0.283,0.546l7.168-3.094A5.519,5.519,0,0,1,52.968,49.264Zm1.053-1.5-9.284,4.008c0.074,0.171.159,0.359,0.254,0.559l8.289-3.579A10.184,10.184,0,0,1,54.021,47.76Zm2.49-2.3L44.33,50.715c0.049,0.146.139,0.4,0.272,0.729l9.984-4.31A15.146,15.146,0,0,1,56.511,45.457Zm3.68,13.333-2.317.989,0.2,0.519L61.052,59Q60.625,58.919,60.191,58.79Zm-1.348-.5-1.329.571,0.232,0.592,1.939-.828Q59.264,58.476,58.844,58.291Zm2.828,2.972-2.752,1.184,0.232,0.593,2.694-1.145C61.783,61.692,61.725,61.479,61.671,61.262ZM50.314,51.971a0.438,0.438,0,0,1-.017-0.347,0.453,0.453,0,0,1,.247-0.259l1.258-.549L45.6,53.5q0.147,0.26.313,0.533L50.377,52.1ZM57.7,57.716l-0.541.234,0.229,0.585,1.03-.442Q58.055,57.916,57.7,57.716Zm-5.477-1.833L48.6,57.444c0.076,0.074.148,0.149,0.226,0.223,0.013,0.01.11,0.1,0.255,0.238l3.407-1.471Zm0.423,0.867-3.3,1.425c0.129,0.139.272,0.3,0.418,0.488L52.914,57.3Zm0.423,0.867-3.091,1.334c0.117,0.163.231,0.338,0.337,0.523l3.023-1.305Zm0.423,0.867-3.01,1.3a4.512,4.512,0,0,1,.236.566l3.043-1.314Zm-2.114-4.335-4.137,1.786c0.131,0.164.268,0.328,0.41,0.492l4-1.725Zm2.537,5.2-3.075,1.328c0.069,0.172.151,0.361,0.246,0.562l3.1-1.331Zm7.554,0.974-2.895,1.237,0.219,0.559,2.8-1.2C61.545,60.713,61.5,60.514,61.467,60.324ZM50.531,52.415L46.095,54.33q0.163,0.257.343,0.52L50.8,52.967Zm1.268,2.6L47.892,56.7c0.144,0.159.291,0.319,0.444,0.476l3.732-1.611Zm10.158,7.21-2.678,1.139,0.206,0.524,2.691-1.173A3.474,3.474,0,0,1,61.957,62.225ZM56.87,65.411l-2,.87c0.17,0.152.344,0.3,0.523,0.444l1.75-.751Zm-0.413-.846-2.339.994c0.153,0.158.31,0.311,0.472,0.463l2.126-.927Zm4.832-5.283-3.084,1.342,0.239,0.611L61.4,59.971C61.352,59.686,61.314,59.446,61.289,59.282Zm1.066,3.792-0.018-.047-2.724,1.188,0.235,0.6,2.184-.937ZM54.77,61.1L51.713,62.41c0.1,0.169.208,0.343,0.322,0.518l2.989-1.3Zm0.408,0.837-2.947,1.283c0.115,0.17.233,0.341,0.358,0.514l2.867-1.226ZM54.34,60.224l-3.1,1.33c0.09,0.177.188,0.36,0.3,0.551l3.079-1.314Zm1.27,2.6-2.8,1.2q0.189,0.249.392,0.5l2.678-1.152Zm0.42,0.861-2.6,1.117c0.139,0.163.282,0.323,0.43,0.483L56.3,64.25ZM50.953,53.282l-4.31,1.86c0.12,0.168.244,0.337,0.374,0.507l4.206-1.815ZM55.4,66.726h0l1.749-.751h0Zm1.234-21.354-12.3,5.343h0l12.181-5.258Zm3.023,20-1.959.855,0.576,1.18a6.741,6.741,0,0,1,1.785-1.01ZM53.627,54.226l-1.475.637,0.024,0.049,1.482-.646Zm-0.536-.818L51.729,54,52,54.549l1.422-.614C53.3,53.76,53.191,53.585,53.091,53.409ZM56.5,57.335l-2.6,1.132,0.2,0.416,2.565-1.107Zm-1.514-1.6L53,56.6l0.269,0.552,2.229-.963Q55.236,55.967,54.991,55.737ZM54.265,55l-1.69.73,0.27,0.552,1.872-.808C54.559,55.319,54.41,55.16,54.265,55ZM53.9,54.578l-1.557.679,0.078,0.159,1.6-.691C53.982,54.675,53.94,54.627,53.9,54.578Zm2.4,2.239c-0.17-.124-0.339-0.25-0.5-0.38l-2.379,1.027,0.269,0.552,2.636-1.137ZM52.43,51.595l-1.547.667,0.269,0.553,1.41-.609A4.059,4.059,0,0,1,52.43,51.595Zm5.79,10.117-2.256.965,0.266,0.544,2.209-.95ZM58.566,62.6l-2.183.939L56.657,64.1l2.141-.91Zm-1.755,1.817,0.258,0.529,2.064-.9-0.207-.528ZM56.805,58.1l-2.539,1.1,0.273,0.559,2.495-1.071Zm2.689,6.864-0.234-.6-2.038.888L57.5,65.824l0.878-.377Zm-7.1-13.828c0-.054.006-0.11,0.01-0.167l-1.705.744a0.073,0.073,0,0,0-.04.042,0.059,0.059,0,0,0,0,.046l0.07,0.144,1.669-.721C52.4,51.2,52.394,51.167,52.394,51.138Zm4.768,7.874-2.469,1.06,0.277,0.568L57.394,59.6Zm-4.486-6.474-1.37.591,0.269,0.552,1.348-.581A5.785,5.785,0,0,1,52.676,52.538Zm5.178,8.239L55.53,61.789l0.28,0.573,2.282-.976Zm-0.332-.847-2.4,1.023,0.253,0.52,2.349-1.023ZM57.5,65.824h0l0.878-.377Zm0.878-.377,1.118-.48h0Zm1.118-.48-1.118.48-0.878.377,0.027,0.055,1.987-.867ZM52.4,51.227l-1.669.721,0.154,0.314,1.547-.667A3.4,3.4,0,0,1,52.4,51.227Zm0.164,0.978-1.41.609,0.153,0.315,1.37-.591Q52.612,52.371,52.563,52.206ZM52.924,53.1l-1.348.581L51.729,54l1.362-.588C53.032,53.305,52.976,53.2,52.924,53.1Zm0.5,0.835L52,54.549l0.154,0.314,1.475-.637C53.555,54.129,53.487,54.033,53.421,53.935Zm0.6,0.79-1.6.691,0.153,0.315,1.69-.73Q54.141,54.863,54.023,54.724Zm0.693,0.75-1.872.808L53,56.6l1.993-.86C54.9,55.65,54.806,55.563,54.716,55.475Zm0.78,0.712-2.229.963,0.154,0.314L55.8,56.437C55.7,56.355,55.6,56.271,55.5,56.187Zm0.829,0.692L53.69,58.016l0.052,0.106,2.623-1.144Zm0.352,0.9-2.565,1.107L54.266,59.2l2.539-1.1Zm0.356,0.91-2.495,1.071,0.154,0.315,2.469-1.06Zm0.36,0.918-2.424,1.035,0.154,0.314,2.4-1.023Zm0.332,0.846-2.349,1.023,0.154,0.316,2.323-1.012Zm0.366,0.935-2.282.976,0.154,0.316,2.256-.965Zm0.347,0.885-2.209.95,0.154,0.315,2.183-.939ZM58.8,63.189l-2.141.91,0.154,0.315,2.115-.9Zm0.334,0.853-2.064.9,0.154,0.314,2.038-.888Zm7-22.382a0.241,0.241,0,0,0-.221.144L65.2,43.451a0.236,0.236,0,0,0,0,.175,8.083,8.083,0,0,1,1.262.589l14.368,6.242a0.24,0.24,0,0,0,.315-0.125l0.715-1.647a0.24,0.24,0,0,0-.125-0.316l-1.26-.544a0.425,0.425,0,0,1-.067-0.014l-12.87-5.556a0.417,0.417,0,0,1-.057-0.039l-1.245-.538A0.236,0.236,0,0,0,66.134,41.661ZM80.69,47.433L81,46.713a0.113,0.113,0,0,0-.059-0.149L68.074,41.008A0.117,0.117,0,0,0,68.029,41a0.114,0.114,0,0,0-.1.068l-0.313.721a0.113,0.113,0,0,0,0,.087,0.116,0.116,0,0,0,.036.037l12.93,5.581A0.109,0.109,0,0,0,80.69,47.433Zm-13.019-5.5h0l12.869,5.555a0.1,0.1,0,0,0,.036,0l-12.93-5.581A0.138,0.138,0,0,0,67.671,41.936ZM69.047,46.6l11.218,4.842c0.133-.329.223-0.583,0.272-0.729L67.845,45.237A8.069,8.069,0,0,1,69.047,46.6ZM68.188,56.726l0.008-.02-0.016.017Zm-0.8.7,0.449,0.195,0.224-.572-0.155-.067C67.738,57.14,67.566,57.29,67.387,57.429Zm3.135-6.661-0.075-.033c0,0.066.008,0.132,0.01,0.2Zm-4.1,7.311,1.058,0.454,0.229-.585-0.645-.278C66.856,57.818,66.642,57.953,66.421,58.08Zm3.394-10.1,10.062,4.343c0.094-.2.18-0.388,0.253-0.559L69.374,47.125A7.919,7.919,0,0,1,69.815,47.983Zm-4.6,10.657,1.9,0.813,0.232-.592-1.327-.569A8.223,8.223,0,0,1,65.216,58.641Zm-1.7,1.354,2.9,1.241,0.24-.611-3.07-1.336C63.577,59.456,63.553,59.7,63.519,59.994Zm0.323-.979L66.789,60.3l0.2-.519-2.269-.968A7.872,7.872,0,0,1,63.842,59.015Zm-0.459,1.947,2.692,1.158,0.219-.559-2.819-1.206C63.448,60.551,63.418,60.755,63.383,60.962ZM73.221,54.7l4,1.725c0.141-.164.279-0.328,0.41-0.492L73.49,54.149Zm-3-5.493,9.22,3.979q0.153-.283.283-0.546l-9.737-4.2A7.928,7.928,0,0,1,70.221,49.208ZM71.952,57.3L75.1,58.662c0.146-.185.288-0.349,0.418-0.488l-3.3-1.425Zm-0.423.867,3.023,1.305c0.107-.184.221-0.359,0.337-0.523L71.8,57.616Zm-0.423.867,3.043,1.314a4.528,4.528,0,0,1,.237-0.566l-3.01-1.3ZM72.8,55.568l3.733,1.611c0.154-.157.3-0.317,0.445-0.476l-3.908-1.687ZM70.68,59.908l3.1,1.331c0.1-.2.178-0.389,0.246-0.562L70.953,59.35Zm2.963-6.074L77.85,55.65q0.2-.255.375-0.507l-4.312-1.861Zm-2.994-3.391,0.058-.148a0.442,0.442,0,0,1,.244-0.248,0.461,0.461,0,0,1,.323,0l-0.954-.412c0.045,0.236.083,0.473,0.107,0.715Zm3.673,0.923a0.453,0.453,0,0,1,.247.259,0.439,0.439,0,0,1-.017.347l-0.063.129,4.469,1.929c0.111-.182.215-0.36,0.313-0.534l-6.2-2.678Zm-0.256,1.6,4.363,1.884q0.18-.264.343-0.52l-4.437-1.916Zm-1.692,3.468,3.407,1.471c0.147-.146.246-0.232,0.261-0.244,0.076-.072.146-0.145,0.22-0.218l-3.618-1.562Zm-4.653,9.539,1.749,0.751c0.179-.142.352-0.292,0.523-0.444l-2-.87ZM70.25,60.79L73.33,62.1c0.108-.19.206-0.374,0.3-0.551l-3.1-1.33Zm-7.378,2,2.51,1.094,0.206-.524L63.078,62.3A3.059,3.059,0,0,1,62.872,62.794Zm0.448-1.479c-0.043.221-.09,0.438-0.144,0.642l2.539,1.08,0.232-.593ZM63.032,63.83l-0.149.064,2.137,0.918,0.234-.6-2.5-1.09Zm6.378-1.317,2.867,1.226c0.125-.173.244-0.343,0.359-0.515l-2.947-1.282ZM68.15,65.1l2.126,0.927c0.161-.152.319-0.306,0.472-0.463l-2.339-.994Zm1.692-3.468,2.989,1.3c0.113-.176.221-0.349,0.321-0.518L70.1,61.1ZM68.563,64.25L71,65.288c0.148-.16.291-0.32,0.43-0.483l-2.6-1.117Zm0.427-.877,2.678,1.152c0.136-.166.266-0.332,0.392-0.5l-2.8-1.2Zm-1.268,2.6,1.749,0.752h0l-1.749-.751h0Zm-5.142-2.33-0.039-.1-0.055.14Zm0.055-.338,0.17,0.431-0.145.062,0.222,0.1,0.149-.064-0.279-.706-0.038-.017Zm-0.055.338-0.094.04-0.014.034L62.661,63.8l0.145-.062-0.17-.431-0.095.238ZM80.537,50.715h0L67.77,45.169l0.075,0.068ZM64.813,66.395A6.721,6.721,0,0,1,66.6,67.4l0.576-1.18-1.959-.855ZM70.02,53.747l2.67,1.165,0.024-.049-2.679-1.157C70.031,53.72,70.025,53.734,70.02,53.747Zm0.122-.374,2.725,1.176L73.137,54,70.3,52.77C70.255,52.975,70.2,53.174,70.143,53.373ZM70.4,52.138c-0.012.093-.028,0.185-0.043,0.276l2.936,1.267,0.269-.552-3.038-1.311Zm3.316,0.677,0.269-.553L70.874,50.92l-0.224.572Zm-6.573,7.636,2.349,1.023,0.253-.52-2.4-1.023Zm-0.713,1.821,2.21,0.95,0.266-.544-2.256-.965Zm0.347-.885,2.282,0.976,0.28-.573-2.323-1.012Zm-0.706,1.8,2.141,0.91,0.275-.563L66.3,62.6ZM74.207,51.8a0.058,0.058,0,0,0,0-.046,0.072,0.072,0,0,0-.04-0.042L71.156,50.4a0.076,0.076,0,0,0-.058,0,0.062,0.062,0,0,0-.033.033L71,50.6l3.134,1.353ZM69.82,54.282l2.625,1.133,0.078-.159-2.635-1.149C69.865,54.165,69.845,54.225,69.82,54.282Zm-4.086,9.76,2.064,0.9,0.258-.529-2.115-.9Zm3.646-8.9,2.642,1.141,0.269-.552L69.668,54.6C69.578,54.782,69.483,54.964,69.38,55.142Zm-0.406.629-0.082.21L71.6,57.149l0.269-.552L69.2,55.443C69.125,55.555,69.051,55.663,68.974,55.771Zm-1.142,2.916,2.5,1.071L70.6,59.2l-2.539-1.1Zm0.708-1.808,2.636,1.137,0.27-.552-2.681-1.157ZM67.473,59.6L69.9,60.639l0.277-.568L67.7,59.012Zm0.716-1.828,2.565,1.107,0.2-.416-2.6-1.132Zm-2.816,7.188,1.278,0.548,0.718,0.309,0.275-.565-2.038-.888Zm2,0.857h0l-0.718-.309Zm-0.718-.309-1.278-.548h0Zm-1.278-.548-0.019.047,1.987,0.867,0.028-.056-0.718-.309Zm8.764-13.017L71,50.6l-0.128.325,3.109,1.342Zm-3.614-.13,3.038,1.311,0.154-.315L70.65,51.492ZM70.3,52.77L73.137,54l0.153-.315-2.936-1.267C70.336,52.533,70.323,52.654,70.3,52.77Zm-0.263.936,2.679,1.157,0.154-.314-2.725-1.176C70.11,53.485,70.073,53.6,70.035,53.706Zm-0.368.891,2.624,1.133,0.153-.315L69.82,54.282C69.774,54.39,69.718,54.492,69.668,54.6Zm-0.472.846L71.869,56.6l0.153-.315L69.38,55.142C69.321,55.244,69.26,55.345,69.2,55.443Zm-0.432.863,2.682,1.157,0.153-.314L68.892,55.98Zm-0.263.671,2.624,1.144,0.052-.106L68.54,56.879ZM68.061,58.1L70.6,59.2l0.153-.315-2.565-1.107Zm-0.357.91,2.469,1.06,0.154-.315-2.5-1.071Zm-0.36.918,2.4,1.023,0.154-.314L67.473,59.6Zm-0.332.847,2.323,1.012,0.154-.316-2.349-1.023Zm-0.366.935L68.9,62.677l0.154-.316-2.282-.976ZM66.3,62.6l2.184,0.939,0.154-.315-2.21-.95Zm-0.359.917,2.115,0.9,0.153-.315-2.141-.91Zm-0.207.528-0.128.326,2.038,0.888,0.154-.314Zm-3.3-15.548a0.2,0.2,0,1,0-.2-0.2A0.2,0.2,0,0,0,62.433,48.494Zm0,5.153a0.2,0.2,0,1,0,.2.2A0.2,0.2,0,0,0,62.433,53.647Zm0-1.311a1.2,1.2,0,1,0-1.2-1.2A1.2,1.2,0,0,0,62.433,52.336Zm0,5.149a6.447,6.447,0,0,0,1.006-.086l0.21-1.909a4.436,4.436,0,0,1-2.431,0l0.21,1.908A6.447,6.447,0,0,0,62.433,57.485Zm0-2.175a4.194,4.194,0,0,0,1.256-.193l0.834-7.587a4.157,4.157,0,0,0-4.181,0l0.834,7.587A4.193,4.193,0,0,0,62.433,55.31Zm0-.919a0.546,0.546,0,1,1,.548-0.547A0.548,0.548,0,0,1,62.433,54.391Zm0-6.64a0.547,0.547,0,1,1-.548.547A0.548,0.548,0,0,1,62.433,47.751Zm0,1.84a1.548,1.548,0,1,1-1.553,1.548A1.552,1.552,0,0,1,62.433,49.59Zm0,9.206a7.779,7.779,0,0,0,.857-0.051l0.109-.989a6.053,6.053,0,0,1-1.932,0l0.108,0.98A6.761,6.761,0,0,0,62.433,58.8Zm0-12.18a4.515,4.515,0,0,1,2.133.533l0.21-1.908a6.312,6.312,0,0,0-4.685,0L60.3,47.15A4.514,4.514,0,0,1,62.433,46.617Zm0-2.175a6.691,6.691,0,0,1,2.381.443l0.108-.984a7.656,7.656,0,0,0-2.49-.42,7.342,7.342,0,0,0-2.483.48l0.1,0.925A6.692,6.692,0,0,1,62.433,44.442Zm-6.62,7.791-0.765.33,0.224,0.572,0.673-.29C55.892,52.644,55.848,52.441,55.813,52.233ZM57.8,46.8l2.011-.869-0.059-.539A6.387,6.387,0,0,0,57.8,46.8Zm2.9,11.776c0.172,0.042.344,0.08,0.514,0.111l-0.035-.316Zm-4.126-4.95,1.68-.725a4.437,4.437,0,0,1-.2-0.583l-1.7.733Q56.455,53.34,56.575,53.622Zm1.038,1.651,1.8-.775a4.472,4.472,0,0,1-.46-0.469l-1.727.746Q57.405,55.033,57.613,55.273ZM56.27,52.7l1.707-.737a4.5,4.5,0,0,1-.07-0.637l-1.761.76Q56.193,52.4,56.27,52.7Zm2.624,4.115a6.656,6.656,0,0,1-.593-0.413l-1.241.536c0.21,0.137.423,0.267,0.64,0.393Zm-1.866-2.343,1.7-.735a4.563,4.563,0,0,1-.324-0.529l-1.68.725Q56.865,54.215,57.028,54.476ZM58.437,49l-2.26.976a6.291,6.291,0,0,0-.089.706l2.007-.866A4.5,4.5,0,0,1,58.437,49Zm-3.916,2.137a0.193,0.193,0,0,0-.1-0.165l0.086,0.219A0.19,0.19,0,0,0,54.522,51.138Zm3.643-5.167L54.851,47.4a12.224,12.224,0,0,0-.908,1.061l3.138-1.355A6.79,6.79,0,0,1,58.165,45.971ZM56.1,55.257l0.224,0.571,0.947-.408c-0.135-.162-0.262-0.33-0.382-0.5ZM58.352,56l1.658-.716,0.14,0.32-1.479.639a6.469,6.469,0,0,0,.617.4l0.722-.312,0.14,0.32-0.46.2a6.26,6.26,0,0,0,.829.334l0.509-.219-0.176-1.6a4.542,4.542,0,0,1-1.139-.624l-1.85.8A6.6,6.6,0,0,0,58.352,56Zm-2.313-2.818-0.64.276,0.224,0.572,0.63-.273C56.173,53.574,56.1,53.381,56.039,53.186Zm2.5-3.558,1.474-.636,0.14,0.32-1.757.759a4.122,4.122,0,0,0-.127.724l1.744-.754,0.14,0.321-1.9.819a4.162,4.162,0,0,0,.059.643l1.7-.734,0.14,0.321-1.766.762a4.2,4.2,0,0,0,.193.586l1.433-.619,0.14,0.321-1.421.614a4.212,4.212,0,0,0,.332.525l0.949-.409,0.14,0.321-0.861.372a4.213,4.213,0,0,0,.473.464l0.249-.107,0.14,0.321-0.066.029a4.2,4.2,0,0,0,.726.4L60.074,48.3,59,48.759A4.15,4.15,0,0,0,58.537,49.627Zm-1.826-1.98-3.153,1.361a6.8,6.8,0,0,0-.49.88l3.186-1.375A6.648,6.648,0,0,1,56.711,47.648Zm-0.959,6.711,0.224,0.571,0.728-.313c-0.107-.175-0.207-0.355-0.3-0.54ZM56.1,51.73l1.811-.782a4.506,4.506,0,0,1,.08-0.7l-1.918.828c0,0.022,0,.043,0,0.065C56.066,51.338,56.078,51.535,56.1,51.73Zm3.954,5.661a6.867,6.867,0,0,1-.786-0.351l-1.179.509c0.245,0.13.492,0.254,0.742,0.367Zm0.11,1.031L61.141,58l-0.033-.3c-0.191-.038-0.378-0.087-0.564-0.142l-1.272.545Q59.715,58.286,60.16,58.422ZM58,56.156c-0.167-.147-0.325-0.3-0.477-0.463l-1.068.461,0.2,0.515,0.058,0.041Zm-3.127-5.018a0.557,0.557,0,0,1-.007.074l0.866-.373a6.656,6.656,0,0,1,.068-0.7l-1.209.522A0.544,0.544,0,0,1,54.872,51.138Zm4.742-7.02-0.977.421a14.68,14.68,0,0,0-3.09,2.18L59.7,44.926Zm-3.339,5.437,2.5-1.08a4.558,4.558,0,0,1,1.193-1.128l-0.006-.054-3.435,1.483A6.294,6.294,0,0,0,56.275,49.554ZM56.746,48.3l3.178-1.372-0.07-.638-2.548,1.1A6.293,6.293,0,0,0,56.746,48.3Zm3.265-.36,0.033,0.076-0.03-.276a4.255,4.255,0,0,0-.5.416Zm-4.252,3.934c-0.024-.214-0.036-0.431-0.039-0.652l-1.024.442,0.224,0.571Zm0.326-2.908-2.492,1.076a0.461,0.461,0,0,1,.323,0,0.442,0.442,0,0,1,.244.248l0.058,0.148,1.651-.713A6.6,6.6,0,0,1,56.084,48.968Zm3.53-4.85,0-.027c-0.327.132-.653,0.282-0.974,0.449ZM61.4,58.274L61.35,58.3,61.4,58.71c0.06,0.009.12,0.02,0.179,0.027l-0.108-.98c-0.06-.008-0.12-0.017-0.18-0.028l0.042,0.384ZM59.982,45.855l0.028-.012,0.14,0.321-0.128.055,0.1,0.937,0.025,0.058-0.018.007,0,0.027c0.055-.033.109-0.067,0.166-0.1l-0.21-1.908c-0.056.022-.114,0.042-0.169,0.066Zm-0.11-1,0.139-.06,0.04,0.092h0l-0.1-.925-0.169.065Zm1.305,10.264L60.342,47.53c-0.056.032-.111,0.065-0.165,0.1l0.816,7.42C61.054,55.073,61.114,55.1,61.177,55.117Zm0.109,2.125-0.049.021,0.012,0.107c0.059,0.011.12,0.018,0.18,0.028l-0.21-1.908c-0.061-.017-0.122-0.033-0.182-0.052l0.181,1.644Zm-0.038.129-0.012-.107-0.166.072Zm-1.1-9.108-0.076.032,0.735,6.688c0.06,0.025.123,0.045,0.184,0.067l-0.816-7.42c-0.056.036-.11,0.072-0.164,0.111l0.03,0.276Zm1.111,9.69,0.069,0.161-0.042-.384c-0.059-.01-0.121-0.016-0.18-0.027L61.141,58Zm-0.08.415,0.035,0.316c0.06,0.01.12,0.018,0.18,0.027L61.35,58.3Zm-1.567-14.25L59.7,44.926l0.169-.072-0.091-.829-0.011,0a0.539,0.539,0,0,1-.086.059Zm0.368,1.737-0.06-.547c-0.057.024-.111,0.054-0.168,0.08l0.059,0.539Zm-0.058,1.074,0.087-.038,0.114,0.264-0.1-.937-0.168.073Zm0.046,0.418c0.054-.035.11-0.067,0.166-0.1l0-.027-0.169.073Zm1.178,9.574,0.069,0.161-0.181-1.644c-0.062-.021-0.123-0.045-0.184-0.067l0.176,1.6ZM59.684,44.087a0.539,0.539,0,0,0,.086-0.059l-0.159.062,0,0.027ZM54.851,47.4l3.314-1.43a6.721,6.721,0,0,1,1.549-.95l-0.01-.095L55.547,46.72C55.3,46.943,55.071,47.171,54.851,47.4Zm5.2-2.517-0.04-.092-0.139.06,0.01,0.093C59.937,44.924,59.994,44.906,60.05,44.885Zm-0.337.136c0.056-.025.111-0.051,0.169-0.074l-0.01-.093-0.169.072Zm-2.632,2.086-3.138,1.355q-0.209.276-.386,0.547l3.153-1.361Q56.883,47.368,57.081,47.107Zm2.772-.816-0.04-.364L57.8,46.8a6.407,6.407,0,0,0-.5.6Zm0.3-.127-0.14-.321-0.028.012,0.04,0.363Zm-0.3.127,0.168-.073-0.04-.363-0.169.072Zm-6.261,3.752,2.492-1.076c0.053-.153.106-0.306,0.169-0.454l-3.186,1.375a4.439,4.439,0,0,0-.18.455l0.668-.292C53.568,50.046,53.581,50.048,53.593,50.043Zm2.936-1.267,3.435-1.483-0.04-.364L56.746,48.3C56.667,48.457,56.594,48.614,56.528,48.776Zm3.622-1.563-0.025-.058,0.007,0.065Zm-0.226-.284,0.04,0.364,0.169-.073-0.007-.065-0.114-.264Zm-5.6,3.662a0.544,0.544,0,0,1,.265.071l1.209-.522c0.021-.138.04-0.276,0.069-0.411l-1.651.713,0.06,0.153C54.293,50.6,54.308,50.592,54.324,50.592ZM58.437,49a4.464,4.464,0,0,1,.339-0.527l-2.5,1.08c-0.036.14-.07,0.28-0.1,0.423ZM59,48.759l1.073-.464-0.031-.278-0.033-.076-0.5.215A4.207,4.207,0,0,0,59,48.759Zm1.149-.5-0.107-.245L60.074,48.3Zm-2.163,1.983q0.044-.218.109-0.428l-2.007.866c-0.009.13-.018,0.259-0.02,0.39Zm2.163-.934-0.14-.32-1.474.636a4.111,4.111,0,0,0-.144.443Zm-5.492,2.257,0.038,0.1,1.024-.442c0-.029,0-0.057,0-0.086,0-.1.011-0.2,0.015-0.3l-0.866.373A0.544,0.544,0,0,1,54.658,51.569Zm1.488,0.521,1.761-.76c0-.064-0.01-0.127-0.01-0.192s0.007-.126.01-0.189L56.1,51.73C56.108,51.852,56.128,51.97,56.146,52.09Zm-0.332.143c-0.02-.118-0.041-0.237-0.055-0.357l-0.838.362,0.128,0.326Zm2.437-1.052,1.9-.819-0.14-.321-1.744.754c-0.009.113-.017,0.228-0.017,0.344C58.248,51.153,58.25,51.166,58.25,51.181Zm-2.306,1.665-0.673.29L55.4,53.461l0.64-.276C56,53.074,55.975,52.959,55.945,52.845Zm4.2-1.435-0.14-.321-1.7.734q0.03,0.177.074,0.349Zm-3.789,1.636,1.7-.733C58.028,52.2,58,52.085,57.977,51.967L56.27,52.7C56.3,52.818,56.326,52.934,56.361,53.046Zm-0.108.715-0.63.273,0.128,0.325,0.655-.282C56.354,53.972,56.3,53.869,56.253,53.761Zm0.474,0.176,1.68-.725C58.354,53.109,58.3,53,58.255,52.9l-1.68.725C56.621,53.73,56.676,53.833,56.728,53.937ZM60.15,52.46l-0.14-.321-1.433.619c0.046,0.108.1,0.212,0.152,0.315Zm0,1.05-0.14-.321-0.949.409c0.072,0.1.147,0.192,0.227,0.283Zm-2.928,1.264,1.727-.746c-0.077-.092-0.148-0.189-0.218-0.287l-1.7.735C57.091,54.577,57.154,54.676,57.222,54.774ZM56.7,54.617l-0.728.313L56.1,55.257l0.789-.34C56.825,54.819,56.765,54.717,56.7,54.617Zm3.446-.058-0.14-.321-0.249.107c0.1,0.086.211,0.167,0.322,0.242Zm-3.823,1.269,0.128,0.326,1.068-.461c-0.084-.09-0.17-0.179-0.249-0.273Zm1.286-.555c0.081,0.094.163,0.185,0.249,0.274l1.85-.8q-0.158-.117-0.3-0.25ZM58,56.156l-1.285.554c0.114,0.08.229,0.157,0.345,0.232l1.241-.536C58.2,56.326,58.1,56.242,58,56.156Zm2.15-.547-0.14-.32L58.352,56c0.1,0.085.211,0.164,0.319,0.243Zm-1.256,1.211-1.194.516c0.128,0.074.256,0.145,0.386,0.215l1.179-.509C59.138,56.973,59.016,56.9,58.894,56.819Zm1.256-.161-0.14-.32-0.722.312c0.131,0.074.266,0.142,0.4,0.206Zm-0.877,1.448,1.272-.545c-0.168-.05-0.332-0.108-0.494-0.169l-1.222.525Q59.049,58.016,59.272,58.106Zm1.755-1.134-0.509.219c0.179,0.056.363,0.1,0.549,0.144Zm0.258,0.27-0.069-.16,0.02,0.182Zm-0.216.094,0.166-.072-0.02-.182-0.069-.161-0.119.051,0.04,0.363h0ZM61.141,58l-0.981.418q0.271,0.084.541,0.15l0.48-.2Zm0.258,0.27-0.069-.16L61.35,58.3ZM61.35,58.3l-0.02-.181-0.069-.161L61.141,58l0.04,0.363Zm-6.3-4.681-1.111.48,0.029,0.038,1.1-.479Zm-0.352-.9-1.3.559c0.1,0.176.21,0.352,0.33,0.527l1.191-.515ZM55.2,54.009l-0.991.432c0.041,0.049.082,0.1,0.124,0.147l0.935-.4Zm0.548,1.4-0.435.187c0.166,0.152.34,0.3,0.517,0.446l0.143-.062Zm-0.352-.9-0.818.353c0.146,0.159.3,0.316,0.457,0.471l0.585-.253Zm-1.055-2.693-1.356.585a5.3,5.3,0,0,0,.246.562l1.335-.576ZM53.8,50.434a0.061,0.061,0,0,0-.033-0.033,0.068,0.068,0,0,0-.027-0.006,0.073,0.073,0,0,0-.031.007l-0.935.407a2.195,2.195,0,0,0-.026.267l1.116-.481Zm0.206,1.149a0.547,0.547,0,0,1-.231-0.445,0.54,0.54,0,0,1,.018-0.132l-1.033.446a3.7,3.7,0,0,0,.119.617Zm-1.246-.131,1.033-.446a0.542,0.542,0,0,1,.135-0.245L53.864,50.6l-1.116.481c0,0.02,0,.042,0,0.062A3.107,3.107,0,0,0,52.761,51.452Zm1.529,0.23a0.546,0.546,0,0,1-.283-0.1l-1.127.486c0.031,0.111.066,0.223,0.107,0.334l1.356-.585Zm0.278,0.709-1.335.576c0.051,0.1.107,0.207,0.165,0.31l1.3-.559Zm0.352,0.9-1.191.515c0.067,0.1.135,0.194,0.208,0.291l1.111-.48Zm0.352,0.9-0.935.4q0.119,0.139.245,0.275l0.818-.353Zm0.352,0.9-0.585.253c0.09,0.088.183,0.175,0.278,0.261l0.435-.187Zm0.209,0.959c0.081,0.066.161,0.132,0.244,0.2l-0.1-.258Zm-0.784-3.479-0.176.076L55.1,53.212l0.176-.076ZM56.1,55.257l-0.176.076L56.151,55.9l0.176-.076Zm0.175,0.973,0.091,0.233c0.094,0.071.19,0.138,0.287,0.205l-0.2-.515Zm-2.3-5.866,0.061,0.154,0.176-.076-0.058-.148a0.442,0.442,0,0,0-.244-0.248,0.461,0.461,0,0,0-.323,0l-0.707.305c-0.026.079-.047,0.157-0.065,0.233l0.813-.355A0.259,0.259,0,0,1,53.98,50.364Zm1.771,3.995-0.176.076L55.8,55.007l0.176-.077Zm-0.352-.9-0.176.076,0.084,0.216,0.078,0.176-0.007,0,0.069,0.177,0.176-.076Zm-1.18-2.486,0.138,0.354a0.2,0.2,0,0,0,.153-0.137l-0.086-.219a0.19,0.19,0,0,0-.1-0.032A0.2,0.2,0,0,0,54.22,50.975Zm0.524,1.338,0.176-.076L54.7,51.666l-0.176.076Zm-1.188-2.262-0.668.292,0,0.005,0.707-.305C53.581,50.048,53.568,50.046,53.556,50.051ZM54.277,50.6l-0.06-.153-0.176.076,0.05,0.127A0.553,0.553,0,0,1,54.277,50.6Zm0.419,1.07-0.038-.1a0.57,0.57,0,0,1-.171.089l0.033,0.084Zm0.224,0.571-0.176.076,0.128,0.326,0.176-.076Zm0.352,0.9-0.176.076,0.128,0.326,0.176-.076Zm0.352,0.9-0.176.076,0.128,0.325,0.176-.076ZM55.8,55.007l0.128,0.326,0.176-.076-0.128-.327Zm0.352,0.9,0.128,0.326,0.176-.076-0.128-.326Zm-0.009.385c0.076,0.058.151,0.117,0.228,0.174l-0.091-.233Zm-1.27-3.651-0.176.077,0.224,0.572,0.177-.076Zm0.436,1.114-0.084-.216-0.176.077,0.015,0.039,0.169-.073Zm-1.181-2.615a0.2,0.2,0,0,0,.2.2,0.232,0.232,0,0,0,.034-0.006l-0.138-.354A0.194,0.194,0,0,0,54.127,51.138Zm1.448,3.3-0.176.077,0.224,0.571,0.177-.076Zm0.175,0.974,0.224,0.571,0.176-.076-0.224-.571ZM53.71,50.4a0.073,0.073,0,0,1,.031-0.007,0.068,0.068,0,0,1,.027.006,0.061,0.061,0,0,1,.033.033L53.864,50.6l0.176-.077-0.061-.154a0.259,0.259,0,0,0-.347-0.138l-0.813.355c-0.019.078-.034,0.154-0.046,0.228Zm1.668,3.53-0.176.077,0.069,0.176,0.176-.076Zm-0.858-2.19-0.177.077,0.224,0.571,0.177-.076Zm-0.43-1.1-0.05-.127-0.176.077,0.065,0.166A0.542,0.542,0,0,1,54.091,50.645Zm0.4,1.013a0.562,0.562,0,0,1-.163.027c-0.012,0-.023,0-0.034,0l0.054,0.137,0.177-.077Zm0.257,0.656-0.177.076L54.7,52.716l0.176-.077Zm0.352,0.9-0.177.076,0.128,0.326,0.176-.077Zm0.352,0.9-0.176.076L55.4,54.512l0.176-.077Zm0.352,0.9-0.177.076,0.128,0.326,0.176-.076Zm0.352,0.9-0.176.076,0.1,0.258,0.066,0.051,0.137-.06Zm-1.089-2.251-1.1.479q0.118,0.156.245,0.31l0.991-.432Zm0.246,0.1,0.071,0.179,0.007,0Zm0,0-0.076-.174-0.169.073,0.14,0.356,0.176-.077Zm11.651-2.8L68.77,51.73c0.018-.2.03-0.393,0.03-0.593,0-.022,0-0.043,0-0.065l-1.917-.828A4.506,4.506,0,0,1,66.959,50.949Zm2.987,1.289,0.131-.335c0.009-.089.008-0.181,0.014-0.27l-0.945-.408c0,0.221-.015.438-0.039,0.652Zm-0.81-1.4,0.974,0.42c0-.041.006-0.08,0.006-0.121,0-.188-0.015-0.372-0.028-0.556l-1.02-.441A6.683,6.683,0,0,1,69.136,50.839ZM67.017,57.27q0.278-.206.536-0.437l-0.987-.427a6.672,6.672,0,0,1-.593.413ZM68.4,46.323a7.716,7.716,0,0,0-1.878-1.657l-1.27-.548-0.089.808ZM68.5,53.046l-1.7-.733a4.467,4.467,0,0,1-.2.583l1.68,0.725Q68.412,53.341,68.5,53.046ZM66.77,49.817l2.006,0.866a6.291,6.291,0,0,0-.089-0.706L66.429,49A4.486,4.486,0,0,1,66.77,49.817Zm2.824,3.318,0.224-.572-0.765-.33c-0.034.208-.079,0.411-0.132,0.612ZM67.56,47.391l-2.547-1.1-0.07.638L68.121,48.3A6.285,6.285,0,0,0,67.56,47.391Zm-0.5-.6a6.388,6.388,0,0,0-1.952-1.408l-0.059.539Zm0.721,0.31,1.539,0.665a7.652,7.652,0,0,0-.506-0.887L66.7,45.971A6.79,6.79,0,0,1,67.785,47.107ZM68.6,52.7q0.077-.3.125-0.615l-1.761-.76a4.517,4.517,0,0,1-.07.637ZM66.689,57.51L65.6,57.041a6.872,6.872,0,0,1-.785.351l1.2,0.516A7.774,7.774,0,0,0,66.689,57.51Zm-0.6-9.035,2.5,1.08a6.277,6.277,0,0,0-.253-0.778L64.9,47.293l-0.006.054A4.56,4.56,0,0,1,66.09,48.475Zm3.153,5.559,0.224-.572-0.64-.276c-0.063.2-.134,0.389-0.214,0.576ZM63.65,58.691c0.184-.029.366-0.063,0.546-0.106l-0.51-.217Zm1.1-.251a7.772,7.772,0,0,0,.852-0.332l-1.276-.548c-0.185.054-.372,0.1-0.564,0.142l-0.033.3Zm3.392-4.5-1.68-.725a4.562,4.562,0,0,1-.323.529l1.7,0.735Q68,54.215,68.139,53.937Zm-3.422.622,0.14-.321L65.1,54.346a4.229,4.229,0,0,0,.473-0.464l-0.861-.372,0.14-.321L65.8,53.6a4.189,4.189,0,0,0,.332-0.525l-1.421-.614,0.14-.321,1.433,0.619a4.17,4.17,0,0,0,.193-0.586l-1.766-.762,0.14-.321,1.7,0.734a4.15,4.15,0,0,0,.059-0.643l-1.9-.819,0.14-.321L66.6,50.794a4.122,4.122,0,0,0-.127-0.724l-1.757-.759,0.14-.32,1.473,0.636a4.155,4.155,0,0,0-.464-0.869L64.793,48.3l-0.735,6.688a4.2,4.2,0,0,0,.725-0.4ZM69,49.73l1.051,0.454c-0.031-.244-0.072-0.485-0.125-0.722l-1.143-.494A6.642,6.642,0,0,1,69,49.73Zm-0.836,4.887,0.728,0.313,0.224-.571-0.655-.282C68.369,54.262,68.27,54.441,68.163,54.617Zm0.45-6.1,1.2,0.519a7.54,7.54,0,0,0-.27-0.785l-1.388-.6A6.613,6.613,0,0,1,68.612,48.514Zm-0.638,6.4c-0.12.173-.247,0.342-0.382,0.5L68.5,55.814c0.029-.037.056-0.076,0.085-0.114l0.174-.443Zm-3.627,2.274a6.254,6.254,0,0,0,.829-0.334l-0.46-.2,0.14-.32,0.722,0.312a6.457,6.457,0,0,0,.617-0.4l-1.478-.639,0.14-.32L66.514,56A6.664,6.664,0,0,0,67,55.547l-1.85-.8a4.545,4.545,0,0,1-1.139.624l-0.176,1.6Zm0.508-9.249,0.5,0.215a4.256,4.256,0,0,0-.5-0.416l-0.03.276Zm2.01,8.214,0.97,0.419c0.154-.153.3-0.314,0.441-0.478l-0.934-.4C67.192,55.855,67.033,56.009,66.867,56.156Zm-0.949-2.127a4.481,4.481,0,0,1-.46.469l1.8,0.775a6.333,6.333,0,0,0,.391-0.5Zm0.378-9.5-1.039-.452,0,0.041,1.27,0.548Q66.41,44.6,66.3,44.528Zm-1.479.356,0.04-.092,0.138,0.059,0.091-.831a0.571,0.571,0,0,1-.12-0.105L64.923,43.9l-0.108.984h0Zm-1.2,12.486,0.012-.107-0.05-.021,0.069-.16,0.181-1.644c-0.06.019-.121,0.035-0.182,0.052L63.439,57.4C63.5,57.388,63.559,57.382,63.618,57.371Zm0.255-2.321,0.816-7.42c-0.054-.035-0.109-0.068-0.165-0.1L63.69,55.117C63.752,55.1,63.812,55.073,63.873,55.05Zm-0.4,3.669,0.047-.423-0.049-.021,0.069-.16,0.042-.384c-0.059.01-.119,0.019-0.179,0.028l-0.109.989C63.351,58.739,63.41,58.727,63.47,58.719Zm1.261-11.471,0-.027-0.018-.007,0.025-.058,0.1-.937-0.128-.055,0.14-.321,0.028,0.012,0.06-.547c-0.056-.024-0.113-0.044-0.169-0.066l-0.21,1.908C64.622,47.18,64.676,47.214,64.731,47.247Zm0.355-3.226,0.007-.059-0.126-.046A0.571,0.571,0,0,0,65.086,44.021ZM64.9,47.293l-0.169-.073,0,0.027c0.056,0.032.111,0.065,0.166,0.1Zm-1.3,10.659L63.725,58l0.033-.3c-0.059.011-.12,0.017-0.18,0.027l-0.042.384Zm0.025-.689-0.012.107,0.178-.035Zm0.089-.342,0.119,0.051,0.176-1.6c-0.061.022-.122,0.046-0.184,0.067L63.65,57.082Zm1.393-11.533c-0.056-.027-0.111-0.056-0.168-0.08l-0.06.547,0.168,0.072ZM63.517,58.3l-0.047.423c0.06-.008.12-0.018,0.18-0.028l0.036-.323Zm1.426-11.366,0.07-.638-0.169-.073-0.1.937,0.115-.264Zm0.309-2.812-0.069-.03a0.611,0.611,0,0,1-.1-0.066l-0.091.831,0.169,0.073ZM64.057,54.983L64.793,48.3l-0.076-.032,0.107-.245,0.03-.276c-0.054-.039-0.109-0.075-0.164-0.111l-0.816,7.42C63.935,55.028,64,55.008,64.057,54.983Zm1.126-10.9,0.069,0.03,0-.041L66.3,44.528a7.7,7.7,0,0,0-1.2-.567l-0.007.059A0.611,0.611,0,0,0,65.183,44.087Zm-0.03.933a6.731,6.731,0,0,1,1.549.95l2.117,0.914c-0.13-.193-0.271-0.38-0.418-0.561l-3.237-1.4Zm-0.158-.168-0.138-.059-0.04.092c0.056,0.021.113,0.039,0.168,0.062Zm0.158,0.168,0.01-.095-0.169-.073-0.01.094C65.041,44.97,65.1,45,65.153,45.021Zm-0.14,1.27,2.547,1.1a6.261,6.261,0,0,0-.5-0.6l-2.011-.869Zm3.142,1.357,1.388,0.6c-0.067-.162-0.143-0.32-0.22-0.476l-1.539-.665Q67.983,47.368,68.155,47.648Zm-3.3-1.8-0.14.321,0.128,0.055,0.04-.363Zm0.2,0.084-0.168-.072-0.04.363,0.169,0.073ZM68.121,48.3l-3.178-1.372-0.04.364,3.435,1.483C68.272,48.613,68.2,48.457,68.121,48.3Zm0.661,0.666,1.143,0.494c-0.032-.145-0.07-0.287-0.111-0.429l-1.2-.519C68.676,48.661,68.729,48.815,68.782,48.967Zm-4.065-1.754,0.018,0.007,0.007-.065Zm0.226-.284-0.087-.038-0.115.264-0.007.065L64.9,47.293ZM66.429,49l2.259,0.976c-0.027-.143-0.061-0.283-0.1-0.423l-2.5-1.08A4.463,4.463,0,0,1,66.429,49Zm2.639,1.139,1.02,0.441c-0.01-.134-0.021-0.266-0.038-0.4L69,49.73C69.028,49.865,69.047,50,69.068,50.141Zm-3.713-1.984-0.5-.215-0.033.076-0.031.278,1.073,0.464A4.213,4.213,0,0,0,65.355,48.157Zm-0.638.106L64.793,48.3l0.031-.278Zm0.14,0.729-0.14.32,1.757,0.759a4.111,4.111,0,0,0-.144-0.443Zm2.023,1.254L68.8,51.073c0-.131-0.01-0.26-0.02-0.39l-2.006-.866Q66.835,50.028,66.879,50.245Zm2.267,0.979,0.945,0.408c0.008-.124.017-0.248,0.019-0.373l-0.974-.42c0,0.1.015,0.2,0.015,0.3C69.151,51.167,69.147,51.2,69.146,51.224Zm-2.546-.43-1.744-.754-0.14.321,1.9,0.819c0-.015,0-0.028,0-0.043C66.618,51.022,66.61,50.907,66.6,50.794Zm3.218,1.769,0.128-.326-0.838-.362c-0.013.12-.035,0.239-0.055,0.357ZM66.959,51.33l1.761,0.76c0.018-.12.038-0.238,0.049-0.359l-1.811-.782c0,0.063.01,0.125,0.01,0.189S66.962,51.266,66.959,51.33Zm-2.1-.24-0.14.321,1.766,0.762q0.044-.171.074-0.349ZM68.6,52.7l-1.707-.737c-0.022.117-.05,0.233-0.081,0.346l1.7,0.733C68.54,52.934,68.566,52.818,68.6,52.7Zm0.231,0.48,0.64,0.276,0.128-.326-0.673-.29C68.891,52.959,68.863,53.074,68.827,53.185Zm-3.971-1.046-0.14.321,1.421,0.614c0.054-.1.107-0.207,0.152-0.315Zm3.435,1.483-1.68-.725c-0.046.108-.1,0.212-0.153,0.315l1.68,0.725C68.19,53.833,68.245,53.73,68.291,53.622Zm0.322,0.139c-0.046.108-.1,0.211-0.152,0.316l0.655,0.282,0.128-.325Zm-3.757-.572-0.14.321,0.861,0.372c0.08-.092.155-0.185,0.227-0.283Zm2.982,1.287-1.7-.735c-0.07.1-.141,0.195-0.218,0.287l1.727,0.746C67.712,54.676,67.775,54.577,67.838,54.476Zm0.137,0.44,0.789,0.34,0.128-.327-0.728-.313C68.1,54.717,68.041,54.819,67.975,54.916Zm0.3,1.18c0.079-.092.153-0.187,0.227-0.283l-0.912-.394c-0.079.095-.165,0.183-0.249,0.273Zm-3.421-1.858-0.14.321,0.066,0.029c0.111-.075.219-0.157,0.322-0.242Zm2.4,1.035-1.8-.775q-0.147.133-.3,0.25l1.85,0.8C67.09,55.458,67.172,55.367,67.253,55.273Zm-2.4.015-0.14.32,1.478,0.639c0.108-.079.216-0.157,0.319-0.243Zm1.709,1.119,0.987,0.427c0.1-.086.194-0.168,0.285-0.258l-0.97-.419C66.768,56.242,66.669,56.326,66.565,56.406Zm0.451,0.863-1.044-.45c-0.122.076-.243,0.153-0.371,0.221l1.087,0.469C66.8,57.435,66.908,57.351,67.017,57.27Zm-2.16-.932-0.14.32,0.46,0.2c0.136-.065.271-0.133,0.4-0.206Zm1.161,1.569-1.2-.516c-0.162.061-.326,0.12-0.494,0.169L65.6,58.109C65.74,58.045,65.881,57.979,66.017,57.907Zm-1.669-.717-0.509-.219-0.04.363C63.985,57.294,64.168,57.247,64.348,57.191Zm-0.767.051,0.05,0.021,0.02-.182ZM63.8,57.335l0.04-.363-0.119-.051-0.069.161-0.02.182L63.8,57.336h0Zm-0.114,1.033,0.51,0.217c0.186-.043.371-0.088,0.551-0.145L63.725,58Zm-0.218-.093L63.517,58.3l0.02-.181ZM63.725,58l-0.12-.052-0.069.161-0.02.181,0.169,0.072Zm4.864-2.3c0.1-.13.193-0.26,0.282-0.4l-0.108-.047Zm1.488-3.8-0.131.335,0.077,0.033C70.041,52.148,70.065,52.027,70.077,51.9Zm-0.259.661-0.224.572,0.176,0.076,0.152-.388c0.015-.065.032-0.13,0.045-0.2Zm-0.576,1.47,0.176,0.076,0.069-.177-0.007,0,0.078-.176,0.085-.216-0.176-.076Zm-0.128.325-0.224.571L69.055,55c0.013-.021.026-0.042,0.038-0.063l0.2-.5Zm0.853-1.731c0.023-.118.037-0.239,0.055-0.357l-0.077-.033-0.128.326Zm-0.325.909,0.128-.326-0.176-.076-0.128.326Zm-0.528.822,0.176,0.076,0.128-.326-0.176-.076Zm-0.224.571-0.128.327L68.872,55.3c0.064-.1.124-0.2,0.184-0.3Zm0.2,0.009c0.09-.157.173-0.317,0.252-0.48l-0.054-.023Zm0.723-1.708c0.038-.134.074-0.27,0.105-0.408l-0.152.388Zm-0.182.348L69.7,53.607c0-.013.01-0.026,0.015-0.039l-0.07-.031-0.085.216Zm-0.216.53L69.5,54.143c0.025-.057.045-0.118,0.068-0.177l-0.078-.034Zm0.224-.572,0.07,0.031c0.037-.111.071-0.223,0.1-0.336l-0.046-.02Zm-0.224.572-0.128.326,0.054,0.023c0.051-.1.106-0.207,0.152-0.315Zm0.062-.18,0.007,0,0.07-.179Zm0.078-.176-0.07.179,0.078,0.034c0.047-.118.091-0.238,0.132-0.359l-0.064-.028ZM52.29,66.944L52.262,78.326l1.486,0.028a0.028,0.028,0,0,0,.028-0.028V66.972ZM56.7,69.18H56.138l-0.362-.849H54.127v8.636h3.18A6.637,6.637,0,0,1,56.7,69.18Zm0.224-.349c0.121-.173.249-0.34,0.385-0.5H56.157l0.213,0.5h0.551ZM56.7,69.18c0.036-.059.069-0.118,0.107-0.175h-0.55l-0.288-.674H55.776l0.362,0.849H56.7Zm0.107-.175c0.038-.059.077-0.117,0.117-0.174H56.37l-0.213-.5H55.967l0.288,0.674H56.8Zm11.671,6.55h1.847a0.276,0.276,0,0,0,.277-0.275V72.416a0.274,0.274,0,0,0-.077-0.191l-1.773-1.838A6.576,6.576,0,0,1,68.475,75.556ZM57.9,69.857v0.168A0.19,0.19,0,0,0,57.9,69.857Zm9.295-.108a0.213,0.213,0,0,0-.051-0.007,0.2,0.2,0,0,0-.1.026,0.2,0.2,0,1,0,.27.073A0.2,0.2,0,0,0,67.194,69.748Zm-4.76,4.375a1.474,1.474,0,1,0-1.479-1.474A1.478,1.478,0,0,0,62.433,74.123ZM57.9,69.432a0.537,0.537,0,0,1,.1.034,0.541,0.541,0,0,1-.1.987v2.166a4.507,4.507,0,0,1,1.629-3.437H57.9v0.252Zm4.534,8.441a0.2,0.2,0,1,0,.2.2A0.2,0.2,0,0,0,62.433,77.873Zm5.248-7.917a0.54,0.54,0,0,1-.264.456h0a0.538,0.538,0,0,1-.273.074,0.546,0.546,0,0,1-.275-1.02,0.541,0.541,0,0,1,.394-0.056l-0.175-.229h-1.75a4.526,4.526,0,1,1-7.439,3.5v2.167a0.54,0.54,0,0,1,.1.985,0.534,0.534,0,0,1-.1.041V77.1a6.369,6.369,0,0,0,10.125-1.416V70.405Zm-5.248,8.66a0.546,0.546,0,1,1,.548-0.546A0.548,0.548,0,0,1,62.433,78.616Zm4.708-2.71a0.546,0.546,0,0,1-.273-0.074h0A0.548,0.548,0,1,1,67.142,75.906Zm-8.893-3.257a4.185,4.185,0,1,0,6.506-3.469H60.112A4.168,4.168,0,0,0,58.248,72.649Zm4.185-1.824a1.824,1.824,0,1,1-1.83,1.824A1.829,1.829,0,0,1,62.433,70.825ZM57.9,75.274v0.167A0.191,0.191,0,0,0,57.9,75.274Zm9.342-.085a0.2,0.2,0,0,0-.15-0.02,0.2,0.2,0,0,0-.12.093,0.2,0.2,0,0,0,.072.269,0.2,0.2,0,0,0,.27-0.073A0.2,0.2,0,0,0,67.241,75.189Zm0.783-5.36V69.616c-0.082-.149-0.172-0.293-0.266-0.436h-0.23Zm-0.716-.649H67.088l0.175,0.229c0.007,0,.015,0,0.022,0a0.544,0.544,0,0,1,.333.255,0.529,0.529,0,0,1,.063.291l0.344,0.449V70.117Zm0.221,0H67.308l0.716,0.937V69.829Zm-3.517-1.794,0.313-.8a6.4,6.4,0,0,0-3.782,0l0.313,0.8-2.491,1.087-0.237-.486c-0.077.071-.155,0.14-0.228,0.213v0.63h2.115a4.512,4.512,0,0,1,4.838,0h2.655a6.351,6.351,0,0,0-.768-0.844l-0.237.485Zm-1.578.388a0.546,0.546,0,1,1,.548-0.546A0.548,0.548,0,0,1,62.433,67.774Zm0-.743a0.2,0.2,0,1,0,.2.2A0.2,0.2,0,0,0,62.433,67.031Zm-1.68,1.8h3.36A4.164,4.164,0,0,0,60.753,68.831Zm-2.854.174V69.18h1.629c0.074-.062.152-0.118,0.23-0.175H57.9Zm7.209,0c0.078,0.057.156,0.113,0.23,0.175h1.75l-0.134-.175H65.108Zm-5,.175h4.643c-0.093-.062-0.19-0.12-0.288-0.175H60.4C60.3,69.06,60.205,69.118,60.112,69.18Zm7.063-.175H66.954l0.134,0.175h0.221Zm0.134,0.175h0.45c-0.039-.059-0.079-0.117-0.12-0.175H67.175Zm-7.55-.175c0.083-.061.169-0.119,0.256-0.174H57.9v0.174h1.859Zm1-.174c-0.121.053-.239,0.111-0.353,0.174h4.066c-0.114-.063-0.232-0.122-0.353-0.174h-3.36Zm4.1,0c0.087,0.055.172,0.114,0.256,0.174h1.846l-0.134-.174H64.852Zm2.1,0.174h0.684c-0.042-.059-0.087-0.117-0.131-0.174H66.82Zm-6.591-1.822-0.181-.463a6.349,6.349,0,0,0-1.756,1l0.122,0.251Zm0.246,0.1-2.153.939-0.181-.371c-0.05.044-.1,0.09-0.148,0.134l0.237,0.486,2.491-1.087-0.313-.8c-0.062.019-.12,0.045-0.181,0.066Zm0,0-0.247-.631c-0.061.021-.12,0.043-0.18,0.067l0.181,0.463-1.815.792-0.122-.251c-0.051.041-.1,0.085-0.15,0.129l0.181,0.371Zm5.71,0.69,0.122-.251a6.35,6.35,0,0,0-1.756-1l-0.181.463Zm-2.061-.69,0.247-.631c-0.061-.021-0.119-0.047-0.18-0.066l-0.313.8L66.5,68.473l0.237-.485c-0.049-.045-0.1-0.09-0.148-0.134l-0.181.371Zm2.061,0.69L64.5,67.183l0.181-.463c-0.06-.023-0.12-0.045-0.18-0.067l-0.247.631,2.153,0.939,0.181-.371c-0.05-.043-0.1-0.088-0.15-0.129Zm-8.771,7.47V75.278A0.193,0.193,0,0,0,57.548,75.444Zm0-5.424V69.854A0.192,0.192,0,0,0,57.548,70.021Zm-0.3,5.612a0.546,0.546,0,0,1,.2-0.746,0.554,0.554,0,0,1,.1-0.034v-4.4a0.5,0.5,0,0,1-.1-0.041,0.546,0.546,0,0,1-.2-0.746,0.539,0.539,0,0,1,.3-0.238V69.18H57.108a6.306,6.306,0,0,0,.441,7.532v-0.84A0.54,0.54,0,0,1,57.249,75.632Zm0.11-6.8h0.189V68.585C57.482,68.665,57.422,68.749,57.359,68.831Zm-0.131.174c-0.041.058-.081,0.116-0.12,0.175h0.441V69.005h-0.32Zm0.131-.174c-0.044.058-.089,0.115-0.131,0.174h0.32V68.831H57.359Zm0.463,6.7a0.2,0.2,0,0,0,.077-0.089V75.274a0.115,0.115,0,0,0,0-.013,0.2,0.2,0,0,0-.12-0.093,0.227,0.227,0,0,0-.051-0.006v0.39A0.2,0.2,0,0,0,57.823,75.53Zm-0.1.376h0v1c0.058,0.064.114,0.131,0.175,0.192V75.874A0.562,0.562,0,0,1,57.725,75.906ZM57.9,72.618V70.452a0.539,0.539,0,0,1-.175.033v4.337a0.534,0.534,0,0,1,.142.009c0.012,0,.021.012,0.033,0.016V72.68c0-.011,0-0.021,0-0.031S57.9,72.628,57.9,72.618Zm0-2.581s0-.009,0-0.013V69.857a0.192,0.192,0,0,0-.076-0.088h0a0.2,0.2,0,0,0-.1-0.026h0v0.39A0.2,0.2,0,0,0,57.895,70.037Zm0-.6V69.18H57.724V69.4A0.532,0.532,0,0,1,57.9,69.432Zm-0.175-.6H57.9V68.2c-0.061.061-.117,0.128-0.175,0.192v0.438ZM57.9,69.005H57.724V69.18H57.9V69.005Zm0-.174H57.724v0.174H57.9V68.831Zm-0.175,5.991V70.485h0a0.544,0.544,0,0,1-.174-0.033v4.4A0.531,0.531,0,0,1,57.724,74.822Zm-0.1.367a0.2,0.2,0,0,0-.077.089v0.167s0,0.009,0,.013a0.194,0.194,0,0,0,.171.095v-0.39h0A0.208,0.208,0,0,0,57.625,75.189Zm0.048-5.44a0.2,0.2,0,0,0-.12.092s0,0.009,0,.013v0.167a0.2,0.2,0,0,0,.077.089,0.2,0.2,0,0,0,.1.023v-0.39A0.211,0.211,0,0,0,57.673,69.748Zm0.051-.348V69.18H57.548v0.247a0.341,0.341,0,0,1,.034-0.017A0.545,0.545,0,0,1,57.724,69.4Zm-0.175,6.472v0.84c0.056,0.067.117,0.128,0.175,0.192v-1A0.533,0.533,0,0,1,57.548,75.873Zm0-7.288v0.246h0.175V68.393C57.665,68.457,57.6,68.518,57.548,68.585Zm0.175,0.421H57.548V69.18h0.175V69.005Zm-0.175-.174v0.174h0.175V68.831H57.548Zm11.075,2.358-0.248-.324V74.91A6.184,6.184,0,0,0,68.623,71.189Zm-0.166-.506-0.082-.107v0.289l0.248,0.324q-0.07-.3-0.166-0.579v0.073Zm0,0V70.61c-0.026-.075-0.053-0.148-0.082-0.222v0.188Zm-0.432-.278v5.276c0.064-.117.119-0.239,0.175-0.36V70.635Zm0.175-.347V69.976c-0.057-.121-0.111-0.243-0.175-0.36v0.213Zm-0.175.059v0.288l0.175,0.23V70.347Zm0-.288v0.288l0.175,0.23V70.058ZM68.2,70.635v4.686q0.095-.2.175-0.412V70.865Zm0.082-.47v-0.02c-0.025-.058-0.055-0.112-0.082-0.169v0.082Zm-0.082.181v0.289l0.175,0.23V70.576Zm0-.288v0.288l0.175,0.229V70.388c-0.031-.081-0.059-0.164-0.094-0.243v0.02Z" transform="translate(-43 -41)"/>
</svg>
